<svg width="96" height="96" viewBox="0 0 480 480" fill="none" xmlns="http://www.w3.org/2000/svg">
<path d="M211.299 65L213.296 85.7074L150.616 258.475C150.616 258.475 149.95 260.227 148.618 263.729C147.453 267.232 146.204 271.456 144.872 276.401C143.541 281.14 142.625 285.673 142.125 290H139.628L136.132 270.529L211.299 65ZM57.7192 263.111V285.673H30V282.582C30.1665 282.582 30.8324 282.582 31.9978 282.582C33.3296 282.582 33.9956 282.582 33.9956 282.582C38.4906 282.582 42.4861 280.934 45.9822 277.637C49.4784 274.135 51.5594 269.293 52.2253 263.111H57.7192ZM64.9612 268.056C64.9612 268.262 64.9612 268.468 64.9612 268.674C64.9612 268.88 64.9612 269.19 64.9612 269.602C64.9612 272.898 65.8768 275.989 67.7081 278.874C69.7059 281.552 72.0366 282.891 74.7003 282.891H78.4462V285.673H63.2131V268.056H64.9612ZM70.9545 65H73.4517L78.4462 83.2349L63.7125 285.673H50.2275L70.9545 65ZM73.4517 65L145.372 257.548L139.628 290L68.707 99.6154L73.4517 65ZM213.546 65L235.022 285.673H215.544L201.809 98.3791L211.299 65H213.546ZM227.531 263.111H232.775C233.607 269.293 235.771 274.135 239.267 277.637C242.764 280.934 246.676 282.582 251.004 282.582C251.004 282.582 251.67 282.582 253.002 282.582C254.334 282.582 255 282.582 255 282.582V285.673H227.531V263.111ZM214.295 268.056H216.043V285.673H200.81V282.891H204.556C207.386 282.891 209.717 281.552 211.548 278.874C213.38 275.989 214.295 272.898 214.295 269.602C214.295 269.19 214.295 268.88 214.295 268.674C214.295 268.468 214.295 268.262 214.295 268.056Z" fill="#E2199E"/>
<path d="M297.11 150H343.137C352.93 150 361.744 151.393 369.578 154.179C377.63 156.964 384.376 161.036 389.817 166.393C395.257 171.536 399.392 177.857 402.221 185.357C405.268 192.643 406.791 201 406.791 210.429C406.791 220.714 404.289 230.571 399.283 240C394.496 249.429 387.858 257.143 379.371 263.143C371.101 268.929 361.744 271.821 351.298 271.821C354.997 273.321 359.023 276.429 363.376 281.143C367.728 285.643 371.537 290.036 374.801 294.321C374.801 294.321 376.216 296.464 379.045 300.75C382.091 304.821 385.791 309.857 390.143 315.857C394.713 321.857 399.283 327.75 403.854 333.536C408.424 339.321 412.341 343.929 415.605 347.357C419.958 352.071 424.31 356.25 428.662 359.893C433.015 363.536 437.694 366.429 442.699 368.571C447.922 370.714 453.689 371.786 460 371.786V375H442.046C432.036 375 423.331 373.5 415.932 370.5C408.75 367.5 402.657 363.857 397.651 359.571C392.646 355.071 388.402 350.786 384.92 346.714C384.268 345.857 382.418 343.393 379.371 339.321C376.542 335.25 373.06 330.429 368.925 324.857C365.008 319.071 361.091 313.393 357.174 307.821C353.256 302.25 349.883 297.536 347.054 293.679C344.225 289.607 342.593 287.25 342.158 286.607C338.023 281.25 333.453 276.321 328.447 271.821C323.442 267.321 318.002 265.071 312.126 265.071V261.857C312.126 261.857 313.758 261.964 317.022 262.179C320.504 262.179 324.639 262.071 329.427 261.857C335.085 261.643 341.287 260.786 348.033 259.286C354.78 257.786 361.091 254.679 366.967 249.964C372.842 245.25 377.304 238.071 380.35 228.429C381.003 226.071 381.547 223.179 381.982 219.75C382.418 216.107 382.527 212.571 382.309 209.143C382.091 194.571 378.283 183 370.884 174.429C363.702 165.643 354.018 160.929 341.831 160.286C335.738 159.857 329.427 159.75 322.898 159.964C316.587 159.964 311.255 159.964 306.903 159.964C302.55 159.964 300.374 159.964 300.374 159.964C300.374 159.75 300.048 158.893 299.395 157.393C298.96 155.679 298.416 154.071 297.763 152.571C297.327 150.857 297.11 150 297.11 150ZM301.354 150V375H280.135V150H301.354ZM281.115 351.536V375H255V371.786C255 371.786 255.653 371.786 256.959 371.786C258.482 371.786 259.244 371.786 259.244 371.786C264.902 371.786 269.689 369.857 273.607 366C277.742 361.929 279.918 357.107 280.135 351.536H281.115ZM281.115 173.464H280.135C279.918 167.893 277.742 163.179 273.607 159.321C269.689 155.25 264.902 153.214 259.244 153.214C259.244 153.214 258.482 153.214 256.959 153.214C255.653 153.214 255 153.214 255 153.214V150H281.115V173.464ZM300.374 351.536H301.354C301.354 357.107 303.421 361.929 307.556 366C311.691 369.857 316.587 371.786 322.245 371.786C322.245 371.786 322.898 371.786 324.204 371.786C325.51 371.786 326.162 371.786 326.162 371.786V375H300.374V351.536Z" fill="#E2193A"/>
</svg>
